<svg width="16" height="16" viewBox="0 0 16 16" fill="none" xmlns="http://www.w3.org/2000/svg">
<path fill-rule="evenodd" clip-rule="evenodd" d="M7.04061 1.5H8.95965C9.03532 1.49999 9.09422 1.49998 9.14995 1.50336C9.8569 1.54617 10.476 1.99237 10.7401 2.6495C10.761 2.7013 10.7796 2.75718 10.8035 2.82898L10.8249 2.8932C10.8375 2.931 10.8411 2.9417 10.8442 2.95012C10.9623 3.27666 11.2532 3.50385 11.5568 3.53341C11.5791 3.53462 11.6013 3.53587 11.6233 3.53717C12.741 3.60311 13.6008 3.78918 14.2392 4.4275C14.7381 4.92641 14.9595 5.55904 15.0646 6.34065C15.1667 7.10013 15.1667 8.07055 15.1666 9.29573V9.37094C15.1667 10.5961 15.1667 11.5665 15.0646 12.326C14.9595 13.1076 14.7381 13.7403 14.2392 14.2392C13.7402 14.7381 13.1076 14.9595 12.326 15.0646C11.5665 15.1667 10.5961 15.1667 9.37092 15.1667H6.62904C5.40386 15.1667 4.43344 15.1667 3.67396 15.0646C2.89235 14.9595 2.25972 14.7381 1.76081 14.2392C1.2619 13.7403 1.04049 13.1076 0.935403 12.326C0.833294 11.5665 0.833303 10.5961 0.833313 9.37095V9.29572C0.833303 8.07055 0.833294 7.10013 0.935403 6.34065C1.04049 5.55904 1.2619 4.92641 1.76081 4.4275C2.39913 3.78918 3.25901 3.60311 4.37663 3.53717C4.39865 3.53587 4.42083 3.53462 4.44315 3.53341C4.74686 3.50384 5.03802 3.27655 5.15609 2.95014C5.15916 2.94165 5.16269 2.93118 5.17535 2.89321L5.19677 2.82896C5.22068 2.75718 5.2393 2.70129 5.26012 2.6495C5.5243 1.99237 6.14336 1.54617 6.85031 1.50336C6.90604 1.49998 6.96494 1.49999 7.04061 1.5ZM4.42794 4.53588C4.45755 4.53498 4.48698 4.53332 4.51621 4.53092C5.09781 4.50018 5.7981 4.5 6.66665 4.5H9.33331C10.2019 4.5 10.9021 4.50018 11.4837 4.53092C11.513 4.53332 11.5424 4.53498 11.572 4.53588C12.6413 4.59964 13.1707 4.7733 13.532 5.1346C13.6603 5.26287 13.7652 5.4127 13.85 5.60099C12.6319 6.39177 11.8316 6.9019 11.1577 7.23857C11.1134 7.00774 10.9104 6.83334 10.6666 6.83334C10.3905 6.83334 10.1666 7.05719 10.1666 7.33334V7.63864C8.75368 8.065 7.24627 8.06499 5.83331 7.63861V7.33334C5.83331 7.05719 5.60946 6.83334 5.33331 6.83334C5.08959 6.83334 4.8866 7.00772 4.84229 7.23852C4.16839 6.90184 3.36805 6.3917 2.15001 5.60094C2.23476 5.41267 2.33966 5.26286 2.46792 5.1346C2.82922 4.7733 3.3587 4.59964 4.42794 4.53588ZM1.90687 6.63535C1.83422 7.29962 1.83331 8.15956 1.83331 9.33334C1.83331 10.6045 1.83438 11.5077 1.92649 12.1928C2.01666 12.8635 2.18578 13.2499 2.46792 13.5321C2.75006 13.8142 3.13649 13.9833 3.80721 14.0735C4.49232 14.1656 5.39543 14.1667 6.66665 14.1667H9.33331C10.6045 14.1667 11.5076 14.1656 12.1927 14.0735C12.8635 13.9833 13.2499 13.8142 13.532 13.5321C13.8142 13.2499 13.9833 12.8635 14.0735 12.1928C14.1656 11.5077 14.1666 10.6045 14.1666 9.33334C14.1666 8.1596 14.1657 7.29967 14.0931 6.63541C12.8351 7.45059 11.9723 7.99005 11.1666 8.33638V8.66667C11.1666 8.94281 10.9428 9.16667 10.6666 9.16667C10.3942 9.16667 10.1726 8.9487 10.1668 8.67761C8.74658 9.05201 7.25338 9.052 5.83319 8.67758C5.82739 8.94868 5.60581 9.16667 5.33331 9.16667C5.05717 9.16667 4.83331 8.94281 4.83331 8.66667V8.33634C4.02764 7.98999 3.16488 7.45053 1.90687 6.63535ZM9.99466 3.50059C9.78742 3.5 9.57162 3.5 9.34702 3.5H6.65294C6.42844 3.5 6.21274 3.5 6.0056 3.50059C6.04006 3.43242 6.07046 3.36218 6.09646 3.2903C6.10441 3.26832 6.11221 3.24493 6.12222 3.21487L6.12403 3.20943L6.14114 3.15812C6.17136 3.06744 6.17991 3.04249 6.18795 3.0225C6.30803 2.7238 6.58942 2.52099 6.91077 2.50153C6.93227 2.50022 6.95864 2.5 7.05422 2.5H8.94604C9.04163 2.5 9.06799 2.50022 9.0895 2.50153C9.41084 2.52099 9.69223 2.7238 9.81231 3.0225C9.82035 3.0425 9.8289 3.06743 9.85912 3.15812L9.878 3.21475M9.90381 3.29031C9.92981 3.36219 9.9602 3.43242 9.99466 3.50059L9.90381 3.29031Z" fill="#151515"/>
</svg>
