<svg width="16" height="16" viewBox="0 0 16 16" fill="none" xmlns="http://www.w3.org/2000/svg">
<g clip-path="url(#clip0_1_2339)">
<path fill-rule="evenodd" clip-rule="evenodd" d="M7.66665 1.83333C4.44499 1.83333 1.83331 4.445 1.83331 7.66666C1.83331 10.8883 4.44499 13.5 7.66665 13.5C10.8883 13.5 13.5 10.8883 13.5 7.66666C13.5 4.445 10.8883 1.83333 7.66665 1.83333ZM0.833313 7.66666C0.833313 3.89272 3.8927 0.833328 7.66665 0.833328C11.4406 0.833328 14.5 3.89272 14.5 7.66666C14.5 9.37367 13.8741 10.9345 12.8392 12.1321L15.0202 14.3131C15.2155 14.5084 15.2155 14.825 15.0202 15.0202C14.8249 15.2155 14.5084 15.2155 14.3131 15.0202L12.1321 12.8392C10.9345 13.8741 9.37365 14.5 7.66665 14.5C3.8927 14.5 0.833313 11.4406 0.833313 7.66666Z" fill="#151515"/>
</g>
<defs>
<clipPath id="clip0_1_2339">
<rect width="16" height="16" fill="white"/>
</clipPath>
</defs>
</svg>
