<svg width="16" height="16" viewBox="0 0 16 16" fill="none" xmlns="http://www.w3.org/2000/svg">
<path fill-rule="evenodd" clip-rule="evenodd" d="M2.16669 6.76219C2.16669 3.49618 4.77003 0.833328 8.00002 0.833328C11.23 0.833328 13.8334 3.49618 13.8334 6.76219C13.8334 8.33892 13.384 10.0319 12.5897 11.4946C11.7963 12.9554 10.6371 14.2248 9.18703 14.9026C8.43373 15.2547 7.56631 15.2547 6.81301 14.9026C5.36293 14.2248 4.20377 12.9554 3.41039 11.4946C2.61604 10.0319 2.16669 8.33892 2.16669 6.76219ZM8.00002 1.83333C5.33898 1.83333 3.16669 4.03165 3.16669 6.76219C3.16669 8.16024 3.56844 9.69027 4.28916 11.0173C5.01085 12.3462 6.0307 13.4331 7.23645 13.9967C7.72139 14.2233 8.27865 14.2233 8.76359 13.9967C9.96934 13.4331 10.9892 12.3462 11.7109 11.0173C12.4316 9.69027 12.8334 8.16024 12.8334 6.76219C12.8334 4.03165 10.6611 1.83333 8.00002 1.83333ZM8.00002 5.16666C7.17159 5.16666 6.50002 5.83823 6.50002 6.66666C6.50002 7.49509 7.17159 8.16666 8.00002 8.16666C8.82845 8.16666 9.50002 7.49509 9.50002 6.66666C9.50002 5.83823 8.82845 5.16666 8.00002 5.16666ZM5.50002 6.66666C5.50002 5.28595 6.61931 4.16666 8.00002 4.16666C9.38073 4.16666 10.5 5.28595 10.5 6.66666C10.5 8.04737 9.38073 9.16666 8.00002 9.16666C6.61931 9.16666 5.50002 8.04737 5.50002 6.66666Z" fill="#151515"/>
</svg>
