<svg width="16" height="16" viewBox="0 0 16 16" fill="none" xmlns="http://www.w3.org/2000/svg">
<g clip-path="url(#clip0_1_2321)">
<path fill-rule="evenodd" clip-rule="evenodd" d="M9.96519 0.833329H11.3679C11.9668 0.833309 12.4663 0.833293 12.8628 0.886604C13.2814 0.942874 13.6592 1.06665 13.9629 1.3703C14.2665 1.67395 14.3903 2.05181 14.4466 2.47034C14.4999 2.86687 14.4999 3.36635 14.4999 3.96533V14.1667H14.6665C14.9427 14.1667 15.1665 14.3905 15.1665 14.6667C15.1665 14.9428 14.9427 15.1667 14.6665 15.1667H1.33319C1.05705 15.1667 0.833191 14.9428 0.833191 14.6667C0.833191 14.3905 1.05705 14.1667 1.33319 14.1667H1.49986L1.49986 5.96533C1.49984 5.36634 1.49982 4.86686 1.55313 4.47034C1.6094 4.05181 1.73318 3.67395 2.03683 3.3703C2.34048 3.06665 2.71834 2.94287 3.13687 2.8866C3.53339 2.83329 4.03287 2.83331 4.63186 2.83333L6.85185 2.83333C6.88615 2.25055 6.99359 1.74687 7.37016 1.3703C7.67381 1.06665 8.05168 0.942874 8.4702 0.886604C8.86673 0.833293 9.3662 0.833309 9.96519 0.833329ZM7.33775 3.83333C7.33689 3.83333 7.33603 3.83333 7.33517 3.83333C7.33451 3.83333 7.33385 3.83333 7.33319 3.83333H4.66652C4.02385 3.83333 3.59214 3.83439 3.27012 3.87769C2.96248 3.91905 2.83081 3.99053 2.74394 4.07741C2.65706 4.16429 2.58558 4.29595 2.54421 4.60359C2.50092 4.92562 2.49986 5.35732 2.49986 6V14.1667H5.49986V12.6667C5.49986 12.3905 5.72372 12.1667 5.99986 12.1667C6.276 12.1667 6.49986 12.3905 6.49986 12.6667V14.1667H9.49986V6C9.49986 5.35732 9.4988 4.92562 9.4555 4.60359C9.41414 4.29595 9.34266 4.16429 9.25578 4.07741C9.1689 3.99053 9.03724 3.91905 8.7296 3.87769C8.40833 3.83449 7.97791 3.83334 7.33775 3.83333ZM10.4999 14.1667L10.4999 5.96533C10.4999 5.36635 10.4999 4.86687 10.4466 4.47034C10.3903 4.05181 10.2665 3.67395 9.96289 3.3703C9.65924 3.06665 9.28137 2.94287 8.86284 2.8866C8.57927 2.84848 8.24305 2.83763 7.85542 2.83455C7.88888 2.36812 7.96226 2.19241 8.07727 2.07741C8.16415 1.99053 8.29581 1.91905 8.60345 1.87769C8.92548 1.83439 9.35718 1.83333 9.99986 1.83333H11.3332C11.9759 1.83333 12.4076 1.83439 12.7296 1.87769C13.0372 1.91905 13.1689 1.99053 13.2558 2.07741C13.3427 2.16429 13.4141 2.29595 13.4555 2.60359C13.4988 2.92562 13.4999 3.35732 13.4999 4V14.1667H10.4999ZM3.49986 5.33333C3.49986 5.05719 3.72372 4.83333 3.99986 4.83333H7.99986C8.276 4.83333 8.49986 5.05719 8.49986 5.33333C8.49986 5.60947 8.276 5.83333 7.99986 5.83333H3.99986C3.72372 5.83333 3.49986 5.60947 3.49986 5.33333ZM3.49986 7.33333C3.49986 7.05719 3.72372 6.83333 3.99986 6.83333H7.99986C8.276 6.83333 8.49986 7.05719 8.49986 7.33333C8.49986 7.60947 8.276 7.83333 7.99986 7.83333H3.99986C3.72372 7.83333 3.49986 7.60947 3.49986 7.33333ZM3.49986 9.33333C3.49986 9.05719 3.72372 8.83333 3.99986 8.83333H7.99986C8.276 8.83333 8.49986 9.05719 8.49986 9.33333C8.49986 9.60947 8.276 9.83333 7.99986 9.83333H3.99986C3.72372 9.83333 3.49986 9.60947 3.49986 9.33333Z" fill="#151515"/>
</g>
<defs>
<clipPath id="clip0_1_2321">
<rect width="16" height="16" rx="2" fill="white"/>
</clipPath>
</defs>
</svg>
