<svg width="14" height="16" viewBox="0 0 14 16" fill="none" xmlns="http://www.w3.org/2000/svg">
<path d="M2.64645 8.3536C2.45119 8.15833 2.45119 7.84175 2.64645 7.64649L3.97978 6.31316C4.17504 6.11789 4.49163 6.11789 4.68689 6.31316C4.88215 6.50842 4.88215 6.825 4.68689 7.02026L4.20711 7.50004L9 7.50004C9.27614 7.50004 9.5 7.7239 9.5 8.00004C9.5 8.27618 9.27614 8.50004 9 8.50004L4.20711 8.50004L4.68689 8.97982C4.88215 9.17508 4.88215 9.49167 4.68689 9.68693C4.49163 9.88219 4.17504 9.88219 3.97978 9.68693L2.64645 8.3536Z" fill="#151515"/>
<path fill-rule="evenodd" clip-rule="evenodd" d="M8.2969 0.833374H9.03673C9.94845 0.833361 10.6833 0.83335 11.2613 0.911057C11.8614 0.991735 12.3666 1.16433 12.7679 1.56561C13.1692 1.96689 13.3418 2.47214 13.4225 3.07221C13.5002 3.65019 13.5002 4.38507 13.5001 5.2968V10.7033C13.5002 11.615 13.5002 12.3499 13.4225 12.9279C13.3418 13.5279 13.1692 14.0332 12.7679 14.4345C12.3666 14.8358 11.8614 15.0083 11.2613 15.089C10.6833 15.1667 9.94845 15.1667 9.03672 15.1667H8.2969C7.38517 15.1667 6.65029 15.1667 6.07231 15.089C5.47224 15.0083 4.96699 14.8358 4.56571 14.4345C4.29975 14.1685 4.13379 13.8563 4.0287 13.4999C3.39445 13.4991 2.86604 13.4921 2.43792 13.4346C1.92862 13.3661 1.48707 13.2179 1.1346 12.8654C0.782141 12.513 0.633953 12.0714 0.56548 11.5621C0.499972 11.0749 0.499985 10.4577 0.5 9.70252V6.29758C0.499985 5.54237 0.499972 4.9252 0.56548 4.43796C0.633953 3.92866 0.782141 3.48711 1.1346 3.13464C1.48707 2.78218 1.92862 2.63399 2.43792 2.56552C2.86604 2.50796 3.39445 2.50099 4.0287 2.50015C4.13379 2.14379 4.29975 1.83157 4.56571 1.56561C4.96699 1.16433 5.47224 0.991735 6.07231 0.911057C6.65029 0.83335 7.38517 0.833361 8.2969 0.833374ZM3.83464 11.3362C3.83704 11.7659 3.84413 12.1529 3.86856 12.4994C3.31224 12.4973 2.89867 12.4875 2.57117 12.4435C2.17276 12.3899 1.9774 12.294 1.84171 12.1583C1.70602 12.0226 1.61013 11.8273 1.55656 11.4289C1.50106 11.0161 1.5 10.4665 1.5 9.66671V6.33338C1.5 5.53357 1.50106 4.98401 1.55656 4.57121C1.61013 4.1728 1.70602 3.97744 1.84171 3.84175C1.9774 3.70606 2.17276 3.61017 2.57117 3.5566C2.89867 3.51257 3.31224 3.5028 3.86856 3.50065C3.84413 3.8472 3.83704 4.23423 3.83464 4.66393C3.83311 4.94006 4.05572 5.16516 4.33185 5.1667C4.60799 5.16824 4.83309 4.94563 4.83463 4.66949C4.83869 3.94049 4.85762 3.42377 4.92965 3.03161C4.99906 2.65373 5.11052 2.43502 5.27282 2.27271C5.45733 2.08821 5.71637 1.96791 6.20556 1.90214C6.70913 1.83444 7.37653 1.83337 8.33348 1.83337H9.00014C9.95709 1.83337 10.6245 1.83444 11.1281 1.90214C11.6172 1.96791 11.8763 2.08821 12.0608 2.27271C12.2453 2.45722 12.3656 2.71627 12.4314 3.20546C12.4991 3.70902 12.5001 4.37643 12.5001 5.33337V10.6667C12.5001 11.6237 12.4991 12.2911 12.4314 12.7946C12.3656 13.2838 12.2453 13.5429 12.0608 13.7274C11.8763 13.9119 11.6172 14.0322 11.1281 14.0979C10.6245 14.1656 9.95709 14.1667 9.00014 14.1667H8.33348C7.37653 14.1667 6.70913 14.1656 6.20556 14.0979C5.71637 14.0322 5.45733 13.9119 5.27282 13.7274C5.11052 13.5651 4.99906 13.3464 4.92965 12.9685C4.85762 12.5763 4.83869 12.0596 4.83463 11.3306C4.83309 11.0545 4.60799 10.8318 4.33185 10.8334C4.05572 10.8349 3.83311 11.06 3.83464 11.3362Z" fill="#151515"/>
</svg>
